<svg xmlns="http://www.w3.org/2000/svg" viewBox="0 0 64 64">
  <rect width="64" height="64" rx="8" fill="#FFFFFF"/>
  <!-- Bottom layer -->
  <path d="M8 42 L32 52 L56 42 L56 38 Q56 36 54 35 L34 45 Q32 46 30 45 L10 35 Q8 36 8 38 Z" fill="#1A1A1A"/>
  <!-- Middle layer -->
  <path d="M8 34 L32 44 L56 34 L56 30 Q56 28 54 27 L34 37 Q32 38 30 37 L10 27 Q8 28 8 30 Z" fill="#1A1A1A"/>
  <!-- Top layer -->
  <path d="M10 19 Q8 20 8 22 L8 26 L32 36 L56 26 L56 22 Q56 20 54 19 L34 12 Q32 11 30 12 Z" fill="#1A1A1A"/>
</svg>
